<?xml version="1.0" ?><!DOCTYPE svg  PUBLIC '-//W3C//DTD SVG 1.1//EN'  'http://www.w3.org/Graphics/SVG/1.1/DTD/svg11.dtd'><svg enable-background="new 0 0 512 512" height="512px" id="Layer_1" version="1.1" viewBox="0 0 512 512" width="512px" xml:space="preserve" xmlns="http://www.w3.org/2000/svg" xmlns:xlink="http://www.w3.org/1999/xlink"><g><path d="M320,132.797V168c0,30.93-68.047,56-152,56c-83.938,0-152-25.07-152-56v-35.203c0,30.93,68.063,56,152,56   C251.953,188.797,320,163.727,320,132.797z M320,104c0,30.93-68.047,56-152,56c-83.938,0-152-25.07-152-56s68.063-56,152-56   C251.953,48,320,73.07,320,104z M176,408v-27.352c-2.656,0.055-5.281,0.147-8,0.147c-83.938,0-152-25.069-152-56V360   c0,30.93,68.063,56,152,56c3,0,5.938-0.102,8.891-0.164C176.359,413.289,176,410.695,176,408z M168,288   c2.719,0,5.344-0.094,8-0.148v-11.055c0-8.922,3.031-17.039,8.484-24.344c-5.422,0.219-10.906,0.344-16.484,0.344   c-83.938,0-152-25.07-152-56V232C16,262.93,84.063,288,168,288z M168,352c2.719,0,5.344-0.094,8-0.148v-35.203   c-2.656,0.056-5.281,0.148-8,0.148c-83.938,0-152-25.07-152-56V296C16,326.93,84.063,352,168,352z M344,364.797   c-83.938,0-152-25.07-152-56V344c0,30.93,68.063,56,152,56c83.953,0,152-25.07,152-56v-35.203   C496,339.727,427.953,364.797,344,364.797z M344,428.797c-83.938,0-152-25.07-152-56V408c0,30.93,68.063,56,152,56   c83.953,0,152-25.07,152-56v-35.203C496,403.727,427.953,428.797,344,428.797z M496,280c0,30.93-68.047,56-152,56   c-83.938,0-152-25.07-152-56c0-30.93,68.063-56,152-56C427.953,224,496,249.07,496,280z" fill="#4D4D4D"/></g></svg>