<svg width="28" height="32" viewBox="0 0 28 32" fill="none" xmlns="http://www.w3.org/2000/svg">
<path fill-rule="evenodd" clip-rule="evenodd" d="M2.01544 6.48743L12.0154 0.54781C12.1692 0.456509 12.3273 0.37662 12.4886 0.308143C13.6182 -0.171191 14.9085 -0.0913017 15.9846 0.54781L25.9846 6.48743C27.2309 7.22769 28 8.60533 28 10.0974V21.9026C28 23.3947 27.2309 24.7723 25.9846 25.5126L22 27.8792L18 30.2551L15.9846 31.4522C15.8308 31.5435 15.6727 31.6234 15.5114 31.6919C14.3818 32.1712 13.0915 32.0913 12.0154 31.4522L10 30.2551L6 27.8792L2.01544 25.5126C1.85966 25.42 1.71132 25.3175 1.57102 25.2061C0.588876 24.4261 0 23.2082 0 21.9026V10.0974C0 8.60533 0.769144 7.22769 2.01544 6.48743Z" fill="#6FDAA7"/>
<path d="M10.5 24C9.67157 24 9 23.3284 9 22.5V9.83333C9 8.82081 9.82081 8 10.8333 8H18.5C19.3284 8 20 8.67157 20 9.5C20 10.3284 19.3284 11 18.5 11H12V14H16.5C17.3284 14 18 14.6716 18 15.5C18 16.3284 17.3284 17 16.5 17H12V22.5C12 23.3284 11.3284 24 10.5 24Z" fill="white"/>
</svg>
