<svg xmlns="http://www.w3.org/2000/svg" width="140" height="75" fill-rule="evenodd" clip-rule="evenodd" image-rendering="optimizeQuality" shape-rendering="geometricPrecision" text-rendering="geometricPrecision" viewBox="0 0 446 238">
  <defs>
    <style>
      .fil2{fill:#fefefe;fill-rule:nonzero}
</style>
  </defs>
  <g id="Слой_x0020_1">
    <path fill="#f5f7f9" d="M0 0h446v238H0z" />
    <g id="_448691384">
      <rect width="173" height="173" x="136" y="33" fill="#2a2a2a" fill-rule="nonzero" rx="18" ry="18" />
      <path d="M149 107V58c0-3 1-6 4-8 2-2 4-4 8-4h50v6h-50c-2 0-3 1-4 2s-2 2-2 4v49h-6zm6 24v49c0 1 1 3 2 4s2 1 4 1h50v6h-50c-4 0-6-1-8-3-3-2-4-5-4-8v-49h6zm141 0v49c0 3-2 6-4 8s-5 3-8 3h-50v-6h50c2 0 3 0 4-1s2-3 2-4v-49h6zm-6-24V58c0-2-1-3-2-4s-2-2-4-2h-50v-6h50c3 0 6 2 8 4s4 5 4 8v49h-6zM193 113h43c1-1 5-2 8-4 1 0 3-2 5-3 1-2 2-3 3-5v-8c0-2-2-5-3-7-2-2-4-4-7-5s-6-1-9-2h-40v34zm43 4h-43v38c8 0 31-1 38-1 5 0 10-1 14-2 3-2 6-4 8-8 1-3 2-6 2-9 0-4-2-7-3-9-2-2-4-5-7-6-3-2-6-3-9-3zm7-3c1 1 3 1 4 2 3 2 6 5 9 8 1 2 3 6 3 11 0 4-1 8-3 11-2 4-5 7-9 9-5 3-10 4-16 4h-42V75h44c4 0 7 1 11 2 3 2 6 4 8 7 2 2 4 5 4 8 1 3 1 7 0 10-1 2-2 5-4 6-2 3-4 4-6 5-1 1-2 1-3 1z" class="fil2" />
    </g>
  </g>
</svg>
