<svg xmlns="http://www.w3.org/2000/svg" width="140" height="75" fill-rule="evenodd" clip-rule="evenodd" image-rendering="optimizeQuality" shape-rendering="geometricPrecision" text-rendering="geometricPrecision" viewBox="0 0 382 204">
  <defs>
    <style>
      .fil1{fill:#415a86}
</style>
  </defs>
  <g id="Слой_x0020_1">
    <path fill="#f5f7f9" d="M0 0h382v204H0z" />
    <g id="_444191352">
      <path d="M69 65c20 0 37 16 37 37 0 8-3 16-8 22h-6c-5-1-8-2-17-2-9-1-18 4-18 4l1 5s6-3 12-4 13 0 16 1c2 1 6 1 8 1-7 6-16 10-25 10-12 0-23-6-30-14h6c4 1 9-1 12-3 3-1 6-3 9-4h6v-5h-6c-3 1-6 2-9 4s-8 3-13 3c-4 0-7 0-8-1-3-5-4-11-4-17 0-21 16-37 37-37zM45 84c0-3 2-5 7-4 6 1 43 7 45 7 2 1 3 3 1 5-1 3-8 13-10 15-1 2-2 3-5 3H49c-1 0-4-1-4-4V84zm4 3c0-1 1-2 4-2 4 1 28 5 30 5 2 1 2 1 1 3-1 1-5 8-6 9 0 2-1 3-4 2H52c-2 0-3 0-3-2V87z" class="fil1" />
      <path fill="#fff" d="M313 65c21 0 38 16 38 37 0 20-17 37-38 37-20 0-37-17-37-37 0-21 17-37 37-37zm-163 0c21 0 37 16 37 37 0 20-16 37-37 37-20 0-37-17-37-37 0-21 17-37 37-37zm81 0c21 0 38 16 38 37 0 20-17 37-38 37-20 0-37-17-37-37 0-21 17-37 37-37z" />
      <path d="M152 100h17l-4 21h-5l-1-4s-3 3-8 4-11 1-16-3c-4-4-6-9-4-16 1-7 4-11 9-15s10-5 16-5c5 0 9 2 11 5 2 4 2 8 2 8h-8s0-2-3-5c-2-2-7-1-10 0s-6 4-8 9c-1 4-1 10 1 13s8 4 12 2c4-1 5-4 6-5s1-2 1-2l-9-1 1-6zM249 94h-8s0-3-2-4c-2-2-4-2-7-1-3 0-5 1-5 3-1 2 0 4 3 4 3 1 8 3 12 4 3 1 6 3 6 8-1 5-3 9-9 12-6 2-12 2-17 1-4-1-8-3-8-7-1-4 0-6 0-6h8s0 3 1 5 5 2 9 2 6-1 7-4c0-2 0-3-3-4-2-1-9-3-13-4-4-2-7-5-5-11s7-9 13-10 10 0 14 2c3 2 4 4 4 6v4zM291 121h9l5-9h15l2 9h9l-8-38h-9l-23 38zm17-15l8-14 3 14h-11z" class="fil1" />
    </g>
  </g>
</svg>
