<svg xmlns="http://www.w3.org/2000/svg" width="140" height="75" fill-rule="evenodd" clip-rule="evenodd" image-rendering="optimizeQuality" shape-rendering="geometricPrecision" text-rendering="geometricPrecision" viewBox="0 0 446 238">
  <defs>
    <style>
      .fil2{fill:#f10404}
</style>
  </defs>
  <g id="Слой_x0020_1">
    <path fill="#f5f7f9" d="M0 0h446v238H0z" />
    <g id="_448081080">
      <path fill="#4488c6" d="M41 73h66c7 0 13 3 16 8s4 12 2 20c-1 9-6 14-6 14s0-7-5-12c-4-4-8-6-18-6H31l19-15-9-9zm16 21l7-9-6-5h9l5-4 2 4h9l-7 5 2 9-9-6-12 6z" />
      <path d="M66 106l-9 23h41c6 0 9-1 13-5 3-4 3-7 3-10 0-4-2-7-3-8s-2-1-2-1-1 2-5 2-38-1-38-1z" class="fil2" />
      <path fill="#a90e2b" d="M60 133h37l18 17-12 3-6 12z" />
      <path d="M412 86v1s-6 0-9 5c-4 4-18 25-18 25s19 30 22 33 8 3 8 3v2h-31v-2s4 0 6-1c2 0 5-2 3-5-2-4-14-23-14-23s-14 20-15 23c-2 2 0 5 2 5 3 1 5 1 5 1v2l-23-1v-1s6 0 11-6c5-7 18-26 18-26s-18-28-20-30-9-3-9-3v-2h30v1s-2 1-5 1c-3 1-4 3-2 7s12 19 12 19 11-15 12-19c2-3 1-5 0-6-2-1-6-1-6-1v-2h23z" class="fil2" />
      <path fill="#363636" fill-rule="nonzero" d="M352 123c0 1-1 3-2 3-1 1-3 0-3-1 0 0-1-2-3-2-2-1-3 0-4 1-1 0-3 2-4 4-3 2-5 5-6 6 0 2-1 4-1 6-2 11-2 13-2 13-1 2-2 3-4 2-1 0-2-1-2-3 0 0 1-3 3-13 0-2 1-4 1-7 1-7 2-13 2-13 0-1 1-2 3-2 1 0 2 1 2 3 0 0 0 1-1 4h1c2-2 3-4 5-5s4-2 7-2c6 1 8 6 8 6zm-221 30c0 2-2 3-3 2-2 0-3-1-2-3l4-24c1-7 1-9 1-9 0-2 1-3 3-3 1 0 2 1 2 2 0 0 1 2 0 5 4-3 8-6 11-5 7 0 9 4 9 4 1 2 0 3-1 4s-3 0-4-1c0 0-1-2-4-2s-8 5-12 9c-2 8-4 21-4 21zm53 0c0 1-2 2-3 2-2 0-3-1-3-3 0 0 1-2 1-6-1 2-3 3-4 4-3 2-5 3-7 4-2 0-4 0-6-1h-1c-2-3-3-6-3-11 1-4 2-9 6-13 2-4 6-7 9-9 4-3 8-4 11-3 1 0 1 1 2 1s2-1 2 0c2 0 3 1 2 3l-3 15c-3 10-3 17-3 17zm-1-22c0-4 1-6 0-7 0-1 0-1-1-2-1 0-4 1-6 2-3 2-6 5-8 8-3 4-4 7-4 11-1 2 0 4 1 5 0 1 1 1 2 1 1-1 3-1 5-3s5-5 7-8c2-2 3-5 4-7zm25-14c0-2 2-2 3-2 2 1 2 2 2 4 0 0-1 1-2 4 1-1 2-2 4-3 1 0 2-1 2-1 3-2 5-3 7-4 3 0 5 0 7 2 3 1 3 4 3 7 0 2 0 5-1 9-3 7-8 20-8 20 0 2-2 2-3 2-1-1-2-2-2-4 0 0 5-13 7-20 1-3 2-5 2-7s0-2-1-3c0 0-1-1-3 0-1 0-3 1-5 2-1 1-2 1-2 2-4 2-7 5-10 8-1 1-1 1-1 2-3 10-5 17-5 18s-1 2-3 2c-1-1-2-2-2-4 0 0 2-7 5-17 0-1 0-2 1-3v-1c3-8 5-13 5-13zm48-19c1-2 2-2 3-2 2 0 3 2 2 3 0 0-2 8-7 25-1 3-1 5-2 7l6-3c6-5 13-13 13-13 1-1 3-1 4 0s1 2 0 3c0 0-6 8-12 13 2 1 4 3 6 7 2 6 2 15 2 15-1 1-2 3-3 2-2 0-3-1-3-2 0 0 1-8-1-13-2-3-4-5-6-6-3 2-6 3-8 4-2 9-3 15-3 15 0 2-2 2-3 2-2 0-3-1-2-3 0 0 2-12 7-29s7-25 7-25zm52 47c1-1 2-1 4 0 1 1 1 2 0 4 0 0-8 7-18 7-6 0-9-2-11-5-2-2-2-6-1-10-1 0-2-1-2-2 0-2 2-3 3-3h1c0-2 1-4 3-6 2-3 4-6 7-8 1-1 3-2 4-2 2-2 4-2 6-2 2 1 3 2 5 3v2h1c0 2 1 5 0 7-1 3-3 5-7 7-1 0-2 1-2 1-5 2-10 3-14 3v1c-1 3-1 5 0 6 1 2 3 3 7 3 8 0 14-6 14-6zm-17-12c0 1-1 2-1 2 2 0 6-1 9-2 0 0 1 0 1-1 3-1 4-2 5-4v-3s-1 0-1-1h-4c-1 1-2 1-2 2-3 2-5 4-7 7z" />
    </g>
  </g>
</svg>
