<svg xmlns="http://www.w3.org/2000/svg" width="140" height="75" fill-rule="evenodd" clip-rule="evenodd" image-rendering="optimizeQuality" shape-rendering="geometricPrecision" text-rendering="geometricPrecision" viewBox="0 0 446 238">
  <defs>
    <style>
      .fil1,.fil2{fill:#20466a;fill-rule:nonzero}.fil2{fill:#fff}
</style>
  </defs>
  <g id="Слой_x0020_1">
    <path fill="#f5f7f9" d="M0 0h446v238H0z" />
    <g id="_446247592">
      <circle cx="223" cy="119" r="90" class="fil1" />
      <circle cx="223" cy="119" r="75" class="fil2" />
      <circle cx="223" cy="119" r="67" class="fil1" />
      <path d="M234 100c2-2 5-2 7 0s2 5 0 7l-4 4c1 1 2 1 2 1h1c1 0 2 0 2-1l14-13c1-1 1-2 1-3s0-2-1-3l-6-6c-1-1-2-1-3-1s-2 0-3 1l-13 13c-1 1-1 2-1 3v2l4-4zm-4 19l-7 7c2 3 3 6 3 10 0 3-1 7-4 10l-13 13c-3 3-7 4-10 4h-1c-3 0-7-1-9-4l-6-6c-3-3-4-6-4-10s1-7 4-10l13-13c3-3 6-4 10-4 3 0 7 1 9 3l8-8c-2-2-3-6-3-9 0-4 1-7 4-10l13-13c3-3 6-4 10-4s7 1 10 4l6 6c3 3 4 6 4 10 0 3-1 7-4 10l-13 13c-3 3-7 4-10 4h-1c-3 0-6-1-9-3zm-15 14l-4 5c-2 2-5 2-7 0s-2-5 0-7l4-5h-2c-1 0-2 0-3 1l-13 13c-1 1-1 2-1 3s0 2 1 3l6 6c1 1 2 1 2 1h1c1 0 2 0 3-1l13-14c1 0 1-1 1-2s0-2-1-3z" class="fil2" />
    </g>
  </g>
</svg>
